<svg xmlns="http://www.w3.org/2000/svg" viewBox="0 0 512 512" fill="none">
  <path d="M 82 206 C 72 172 113 176 117 191 L 138 255 C 148 290 154 233 161 223 C 165 248 168 261 185 297 C 155 358 127 339 118 315 L 82 206" fill="goldenrod"/>
  <path d="M 82 206 M 169 210 C 165 174 195 174 199 198 C 215 289 265 380 383 343 C 411 338 425 375 398 383 C 263 429 187 324 169 210" fill="#34a853"/>
  <path d="M 201 174 C 250 110 354 80 432 187 C 323 134 253 160 226 250 C 205 216 212 188 201 174" fill="#ea4335"/>
  <path d="M 337 224 C 339 234 377 219 361 198 C 341 171 300 172 277 199 C 270 207 261 230 275 250 C 287 266 309 272 323 278 C 334 282 331 292 326 297 C 318 305 306 294 298 289 C 283 280 265 292 273 311 C 291 342 342 338 357 315 C 373 295 374 269 357 256 C 345 247 323 240.6667 306 233 C 298 228 302 218 307 216 C 316 210 329 211 337 224" fill="#4285f4"/>
</svg>
