<svg fill="#34a853" version="1.1" xmlns="http://www.w3.org/2000/svg" viewBox="0 0 32 32">
  <path fill="goldenrod" d="M 9.002 31.36 c -2.404 0 -4.36 -1.956 -4.36 -4.36 s 1.956 -4.36 4.36 -4.36 c 0.731 0 1.42 0.182 2.026 0.5 l 2.125 -3.338 l 0.607 0.387 l -2.125 3.339 c 1.048 0.797 1.727 2.057 1.727 3.473 C 13.362 29.404 11.407 31.36 9.002 31.36 z M 8.995 23.413 A 1 1 0 0 0 9.007 30.606 A 1 1 0 0 0 8.993 23.413"/>
  <path d="M16.002,31.355
	c-0.861,0-1.722-0.071-2.557-0.212l0.119-0.711c0.796,0.135,1.617,0.202,2.438,0.202c4.648,0,8.917-2.134,11.712-5.854l0.576,0.432
	C25.358,29.116,20.879,31.355,16.002,31.355z"/>
  <path fill="#34a853" d="M 31 24.86 c -0.062 0 -0.126 -0.017 -0.182 -0.05 l -5.995 -3.505 c -0.11 -0.064 -0.179 -0.183 -0.179 -0.311 s 0.068 -0.246 0.179 -0.311 l 5.995 -3.495 c 0.113 -0.065 0.249 -0.065 0.361 -0.002 c 0.111 0.064 0.181 0.184 0.181 0.312 v 7 c 0 0.129 -0.069 0.248 -0.182 0.312 C 31.124 24.844 31.062 24.86 31 24.86 z M 26.709 20.465 C 25.631 21.037 25.625 21.024 26.68 21.613 L 29.886 23.52 C 30.596 23.987 30.804 23.802 30.804 23.432 L 30.789 18.757 C 30.795 17.873 30.523 18.121 30.108 18.388 L 26.738 20.445"/>
  <path d="M3.345,24.699c-0.554-0.803-1.034-1.665-1.425-2.56l0.66-0.289
	c0.373,0.854,0.829,1.675,1.357,2.44L3.345,24.699z"/>
  <path fill="#34a853" d="M 3.126 20.477 c -0.092 0 -0.184 -0.035 -0.254 -0.105 l -2.126 -2.116 C 0.678 18.188 0.64 18.096 0.64 18 c 0 -0.095 0.038 -0.187 0.105 -0.255 l 2.126 -2.125 c 0.141 -0.141 0.368 -0.141 0.509 0 l 2.122 2.121 c 0.068 0.067 0.105 0.159 0.105 0.255 S 5.57 18.183 5.502 18.25 L 3.38 20.371 C 3.31 20.441 3.218 20.477 3.126 20.477 z M 2.935 16.26 L 1.388 17.869 C 1.273 17.984 1.342 18.028 1.4 18.103 L 2.98 19.567 C 3.066 19.649 3.169 19.722 3.296 19.587 L 4.757 18.164 C 4.876 18.037 4.913 17.946 4.806 17.836 L 3.325 16.269 C 3.132 16.043 3.066 16.129 2.935 16.265"/>
  <path d="M8.761,20.176c-0.732-1.266-1.119-2.711-1.119-4.181
	c0-3.819,2.58-7.149,6.274-8.098l0.179,0.697c-3.375,0.867-5.733,3.91-5.733,7.4c0,1.343,0.354,2.664,1.022,3.819L8.761,20.176z"/>
  <path fill="#ea4335" d="M 16.002 19.355 c -1.853 0 -3.36 -1.508 -3.36 -3.36 c 0 -1.732 1.317 -3.162 3.002 -3.341 V 6.995 h 0.72 v 5.659 c 1.683 0.182 2.998 1.61 2.998 3.341 C 19.362 17.848 17.854 19.355 16.002 19.355 z M 16.001 13.445 A 1 1 0 0 0 15.993 18.568 A 1 1 0 0 0 15.996 13.445"/>
  <path d="M30.641,15.019
	c-0.432-6.56-5.246-12.057-11.707-13.37l0.143-0.706c6.779,1.377,11.83,7.146,12.283,14.029L30.641,15.019z"/>
  <path fill="goldenrod" d="M 24.005 14.355 c -0.062 0 -0.124 -0.016 -0.18 -0.048 l -2.599 -1.5 c -0.111 -0.064 -0.181 -0.184 -0.181 -0.312 v -3 c 0 -0.128 0.069 -0.248 0.181 -0.312 l 2.599 -1.5 c 0.111 -0.063 0.248 -0.064 0.359 0 l 2.598 1.5 c 0.111 0.064 0.181 0.183 0.181 0.312 v 3 c 0 0.128 -0.069 0.248 -0.181 0.312 l -2.598 1.5 C 24.129 14.339 24.067 14.355 24.005 14.355 z M 26.304 9.501 L 24.26 8.312 C 24.077 8.217 23.955 8.208 23.774 8.321 L 21.81 9.462 C 21.588 9.567 21.501 9.708 21.505 9.914 L 21.518 12.117 C 21.509 12.405 21.572 12.444 21.731 12.528 L 23.642 13.616 C 23.885 13.754 24.002 13.769 24.239 13.63 L 26.243 12.555 C 26.394 12.468 26.535 12.335 26.522 12.05 L 26.522 9.967 C 26.523 9.651 26.486 9.604 26.309 9.506"/>
  <path fill="#34a853" d="M 15.998 4.36 c -1.024 0 -1.857 -0.836 -1.857 -1.865 c 0 -1.023 0.833 -1.855 1.857 -1.855 c 1.027 0 1.863 0.832 1.863 1.855 C 17.86 3.523 17.024 4.36 15.998 4.36 z M 16.009 1.091 A 1 1 0 0 0 15.993 3.926 A 1 1 0 0 0 16.003 1.091"/>
  <path d="M2.627,9.542c-0.054,0-0.108-0.012-0.159-0.039c-0.175-0.09-0.249-0.295-0.16-0.471
	C2.309,9.029,2.32,9.008,2.322,9.004c0.094-0.175,0.311-0.24,0.488-0.146C2.985,8.952,3.05,9.17,2.956,9.346
	C2.89,9.469,2.76,9.542,2.627,9.542z"/>
  <path d="M4.926,6.231c-0.088,0-0.176-0.031-0.244-0.095C4.54,6.002,4.525,5.786,4.655,5.641
	C4.66,5.637,4.678,5.618,4.683,5.613c0.141-0.141,0.368-0.141,0.509,0s0.141,0.368,0,0.509C5.12,6.194,5.022,6.231,4.926,6.231z"/>
  <path d="M3.667,7.803c-0.088,0-0.176-0.031-0.244-0.095c-0.142-0.134-0.157-0.35-0.027-0.495C3.4,7.208,3.418,7.189,3.423,7.185
	c0.141-0.141,0.368-0.141,0.509,0c0.141,0.141,0.141,0.368,0,0.509C3.861,7.766,3.763,7.803,3.667,7.803z"/>
  <path d="M1.831,11.401
	c-0.088,0-0.176-0.031-0.244-0.095c-0.142-0.134-0.157-0.35-0.027-0.495c0.004-0.005,0.022-0.024,0.027-0.028
	c0.141-0.141,0.368-0.141,0.509,0s0.141,0.368,0,0.509C2.024,11.363,1.927,11.401,1.831,11.401z"/>
  <path d="M1.296,13.348
	c-0.088,0-0.176-0.031-0.244-0.095c-0.142-0.134-0.157-0.35-0.027-0.495c0.004-0.005,0.022-0.024,0.027-0.028
	c0.141-0.141,0.368-0.141,0.509,0s0.141,0.368,0,0.509C1.49,13.311,1.392,13.348,1.296,13.348z"/>
  <path d="M16.41,24.35
	c-0.088,0-0.176-0.031-0.244-0.095c-0.142-0.134-0.157-0.35-0.027-0.495c0.004-0.005,0.022-0.024,0.027-0.028
	c0.141-0.141,0.368-0.141,0.509,0s0.141,0.368,0,0.509C16.603,24.313,16.506,24.35,16.41,24.35z"/>
  <path d="M18.417,23.983
	c-0.088,0-0.176-0.031-0.244-0.095c-0.142-0.134-0.157-0.35-0.027-0.495c0.004-0.005,0.022-0.024,0.027-0.028
	c0.141-0.141,0.368-0.141,0.509,0s0.141,0.368,0,0.509C18.61,23.946,18.513,23.983,18.417,23.983z"/>
  <path d="M21.797,21.883
	c-0.088,0-0.176-0.031-0.244-0.095c-0.142-0.134-0.157-0.35-0.027-0.495c0.004-0.005,0.022-0.024,0.027-0.028
	c0.141-0.141,0.368-0.141,0.509,0s0.141,0.368,0,0.509C21.99,21.846,21.893,21.883,21.797,21.883z"/>
  <path d="M23.742,18.386
	c-0.088,0-0.176-0.031-0.244-0.095c-0.142-0.134-0.157-0.35-0.027-0.495c0.004-0.005,0.022-0.024,0.027-0.028
	c0.141-0.141,0.368-0.141,0.509,0s0.141,0.368,0,0.509C23.936,18.349,23.839,18.386,23.742,18.386z"/>
  <path d="M6.375,4.855
	c-0.099,0-0.197-0.042-0.269-0.123C5.973,4.585,5.992,4.352,6.14,4.219C6.149,4.211,6.174,4.19,6.184,4.183
	C6.345,4.066,6.57,4.102,6.687,4.262c0.117,0.161,0.082,0.386-0.079,0.503C6.541,4.826,6.458,4.855,6.375,4.855z"/>
  <path d="M9.8,2.692
	c-0.14,0-0.275-0.078-0.334-0.211C9.389,2.305,9.454,2.103,9.625,2.018c0.01-0.005,0.039-0.019,0.05-0.022
	c0.186-0.071,0.394,0.021,0.465,0.207c0.071,0.186-0.021,0.394-0.207,0.465C9.891,2.684,9.845,2.692,9.8,2.692z"/>
  <path d="M8.028,3.643
	c-0.14,0-0.275-0.078-0.334-0.211C7.616,3.256,7.681,3.054,7.853,2.969c0.01-0.005,0.039-0.019,0.05-0.022
	c0.186-0.071,0.394,0.021,0.465,0.207S8.347,3.548,8.161,3.619C8.118,3.635,8.073,3.643,8.028,3.643z"/>
  <path d="M11.69,1.983
	c-0.155,0-0.303-0.097-0.351-0.251c-0.059-0.19,0.039-0.389,0.229-0.447l0.019-0.006c0.187-0.058,0.391,0.048,0.45,0.238
	c0.058,0.19-0.048,0.392-0.238,0.45C11.763,1.978,11.727,1.983,11.69,1.983z"/>
  <path d="M14.444,24.204c-0.019,0-0.037-0.002-0.056-0.005
	c-0.015-0.002-0.049-0.009-0.064-0.014c-0.191-0.054-0.302-0.254-0.247-0.444c0.054-0.191,0.252-0.304,0.445-0.247
	c0.196,0.029,0.319,0.211,0.289,0.407C14.783,24.079,14.62,24.204,14.444,24.204z"/>
  <path d="M20.243,23.141c-0.122,0-0.241-0.062-0.309-0.175
	c-0.103-0.171-0.047-0.392,0.123-0.494c0.166-0.102,0.393-0.055,0.498,0.11c0.104,0.166,0.066,0.379-0.097,0.487
	c-0.004,0.003-0.025,0.017-0.03,0.02C20.37,23.124,20.307,23.141,20.243,23.141z"/>
  <path d="M22.995,20.243c-0.069,0-0.139-0.02-0.199-0.061
	c-0.166-0.11-0.211-0.334-0.101-0.499c0.089-0.18,0.303-0.237,0.477-0.151c0.178,0.09,0.244,0.316,0.155,0.494
	c-0.007,0.014-0.024,0.044-0.032,0.056C23.226,20.187,23.111,20.243,22.995,20.243z"/>
  <path d="M24.002,16.375c-0.199,0-0.36-0.161-0.36-0.36
	s0.161-0.37,0.36-0.37s0.36,0.151,0.36,0.35v0.02C24.362,16.214,24.201,16.375,24.002,16.375z"/>
</svg>
