<svg width="620" height="767" fill="none" xmlns="http://www.w3.org/2000/svg">
  <rect width="79.703" height="79.817" rx="20" transform="rotate(15.024 -1440.72 1206.672) skewX(.047)" fill="#34a853"/>
  <path d="M294.547 246.826c10.243 24.381-1.514 52.602-26.261 63.033-24.746 10.431-53.111-.878-63.354-25.259l89.615-37.774Z" fill="goldenrod"/>
  <ellipse cx="469.68" cy="224.743" rx="48.818" ry="48.868" fill="#ea4335"/>
  <path d="M255.918 176.355c0-11.309 9.155-20.458 20.426-20.458 11.271 0 20.426 9.149 20.426 20.458 0 11.308-9.155 20.457-20.426 20.457-11.271 0-20.426-9.149-20.426-20.457Z" stroke="#ea4335" stroke-width="20"/>
  <rect width="287.67" height="47.9" rx="23.95" transform="rotate(34.495 -792.17 653.921) skewX(.007)" fill="#ea4335"/>
  <path d="M252.296 603.38c-2.56 3.726-7.644 4.669-11.352 2.121-3.708-2.549-4.652-7.633-2.092-11.359 2.56-3.727 7.644-4.669 11.352-2.121 3.708 2.548 4.652 7.633 2.092 11.359Z" stroke="#fff" stroke-width="6"/>
  <path d="m236.703 600.413-12.197 2.275" stroke="#fff" stroke-width="6" stroke-linecap="round"/>
  <ellipse rx="28.692" ry="28.735" transform="rotate(-12.109 432.012 -1012.481) skewX(-.039)" fill="#34a853"/>
  <g clip-path="url(#a)">
    <path d="M232.534 59.932a6.988 6.988 0 0 0-11.234.549l-.713 1.003-1.027-.6a6.924 6.924 0 0 0-6.312-.61 6.89 6.89 0 0 0-4.196 4.696 6.821 6.821 0 0 0 2.92 7.502l11.887 7.96a1.066 1.066 0 0 0 1.2-.013c.116-.081.215-.186.29-.306l7.581-12.117a6.83 6.83 0 0 0-.396-8.064Z" fill="#ea4335"/>
  </g>
  <path d="M571.457 362.744c10.244 24.381-1.514 52.602-26.261 63.033-24.746 10.431-53.111-.878-63.354-25.259l89.615-37.774Z" fill="goldenrod"/>
  <path d="M418.521 338.636c0 12.63-10.226 22.854-22.821 22.854-12.596 0-22.821-10.224-22.821-22.854 0-12.629 10.225-22.853 22.821-22.853 12.595 0 22.821 10.224 22.821 22.853Z" stroke="#34a853" stroke-width="16"/>
  <path d="M411.083 472.113c4.827 3.348 4.521 10.583-.571 13.51l-23.043 13.244c-5.464 3.141-12.246-.977-11.98-7.275l1.201-28.394c.267-6.298 7.373-9.827 12.552-6.235l21.841 15.15ZM74.555 284.158c3.77-4.516 10.963-3.551 13.414 1.799l21.633 47.223c2.624 5.727-2.09 12.096-8.332 11.259l-54.907-7.365c-6.242-.837-9.117-8.224-5.082-13.058l33.274-39.858Z" fill="#ea4335"/>
  <rect x="-.733" y="2.734" width="118.084" height="18.324" rx="9.162" transform="rotate(60.041 225.36 394.008) skewX(.082)" fill="#fff" stroke="#ea4335" stroke-width="4"/>
  <path fill-rule="evenodd" clip-rule="evenodd" d="M98.577 413.491a3.98 3.98 0 0 0-5.442 1.459l-8.768 15.212-15.182-8.78a3.983 3.983 0 0 0-5.446 1.46 3.996 3.996 0 0 0 1.461 5.453l15.182 8.78-8.768 15.211a3.994 3.994 0 0 0 1.46 5.45 3.98 3.98 0 0 0 5.442-1.458l8.768-15.211 15.18 8.778a3.983 3.983 0 0 0 5.446-1.459 3.997 3.997 0 0 0-1.462-5.454l-15.18-8.779 8.769-15.212a3.994 3.994 0 0 0-1.46-5.45Z" fill="#ea4335"/>
  <rect width="172.195" height="57.457" rx="28.728" transform="rotate(28.157 -183.719 103.398) skewX(.073)" fill="#ea4335"/>
  <rect width="111.608" height="14.364" rx="7.182" transform="rotate(28.157 -241.837 153.078) skewX(.073)" fill="#fff"/>
  <rect width="23.91" height="23.946" rx="4" transform="rotate(-12.883 2753.506 -1787.444) skewX(-.041)" fill="#34a853"/>
  <rect x="171.943" y="366.74" width="28.69" height="38.317" rx="4" fill="goldenrod"/>
  <rect width="90.954" height="47.842" rx="23.921" transform="rotate(114.555 180.224 189.172) skewX(-.049)" fill="#34a853"/>
  <ellipse rx="19.148" ry="19.137" transform="rotate(114.555 160.581 184.894) skewX(-.049)" fill="#ea4335"/>
  <rect width="270.421" height="34.133" rx="17.066" transform="rotate(-74.581 529.86 319.508) skewX(-.053)" fill="goldenrod"/>
  <defs>
    <clipPath id="a">
      <path fill="#ea4335" transform="rotate(-12.109 385.704 -946.816) skewX(-.039)" d="M0 0h25.504v25.543H0z"/>
    </clipPath>
  </defs>
</svg>
