<svg width="590" height="700" fill="none" xmlns="http://www.w3.org/2000/svg">
  <rect width="65.135" height="65.181" rx="28" transform="rotate(-30.035 870.868 -78.041) skewX(-.069)" fill="#000" stroke="#ea4335" stroke-width="14"/>
  <rect x=".732" y="-2.734" width="117.051" height="17.712" rx="8.856" transform="rotate(-119.965 234.396 -60.55) skewX(.069)" fill="#000" stroke="goldenrod" stroke-width="4"/>
  <rect width="270.604" height="34.145" rx="17.072" transform="rotate(-50.513 391.878 157.665) skewX(-.064)" fill="#34a853"/>
  <ellipse cx="124.821" cy="398.68" rx="15.821" ry="15.863" fill="#ea4335"/>
  <rect width="24.528" height="24.583" rx="4" transform="rotate(17.153 -799.023 836.664) skewX(.086)" fill="goldenrod"/>
  <path d="M328.104 115.623c0 18.055-14.591 32.659-32.552 32.659-17.96 0-32.552-14.604-32.552-32.659 0-18.054 14.592-32.658 32.552-32.658 17.961 0 32.552 14.604 32.552 32.658Z" stroke="#34a853" stroke-width="14"/>
  <ellipse cx="295.553" cy="126.204" rx="11.866" ry="11.898" fill="#ea4335"/>
  <ellipse cx="316.866" cy="600.614" rx="11.866" ry="11.898" fill="#34a853"/>
  <ellipse cx="462.835" cy="365.751" rx="48.834" ry="48.903" fill="#ea4335"/>
  <path d="M374.662 334.875c0 12.644-10.233 22.875-22.831 22.875-12.598 0-22.831-10.231-22.831-22.875S339.233 312 351.831 312c12.598 0 22.831 10.231 22.831 22.875Z" stroke="goldenrod" stroke-width="16"/>
  <path d="M469.993 688.464c-22.022 6.371-45.049-6.319-51.434-28.344-6.384-22.025 6.293-45.044 28.315-51.415l23.119 79.759Z" fill="#ea4335"/>
  <rect width="134.511" height="22.203" rx="11.102" transform="rotate(-37.733 933.746 170.384) skewX(.071)" fill="goldenrod"/>
  <ellipse cx="439.657" cy="225.587" rx="12.657" ry="12.691" fill="#34a853"/>
  <rect x="527" y="325.844" width="45.881" height="80.903" rx="6" fill="goldenrod"/>
  <path d="M571.96 132.76c9.963 23.709-1.473 51.151-25.543 61.294-24.069 10.143-51.659-.854-61.622-24.562l87.165-36.732Z" fill="#34a853"/>
  <path d="M455.285 107.537C455.285 96.17 464.468 87 475.74 87c11.272 0 20.455 9.17 20.455 20.537 0 11.368-9.183 20.537-20.455 20.537-11.272 0-20.455-9.169-20.455-20.537Z" stroke="#ea4335" stroke-width="20"/>
  <path d="M508.181 458.977c3.77-4.515 10.962-3.551 13.413 1.798l20.73 45.241c2.624 5.726-2.09 12.097-8.333 11.26l-52.615-7.056c-6.243-.837-9.117-8.225-5.081-13.059l31.886-38.184Z" fill="goldenrod"/>
  <rect x="-1.694" y="2.266" width="140.057" height="17.706" rx="8.853" transform="rotate(81.801 -67.376 364.768) skewX(.027)" fill="#000" stroke="#ea4335" stroke-width="4"/>
  <path d="M409.242 503.416c1.813 12.918-7.175 24.857-20.069 26.672-12.893 1.814-24.819-7.182-26.632-20.1-1.813-12.918 7.174-24.857 20.068-26.672 12.894-1.815 24.82 7.181 26.633 20.1Z" stroke="#34a853" stroke-width="4"/>
  <rect width="24.805" height="3.105" rx="1.552" transform="rotate(-8.011 3750.733 -2408.876) skewX(-.022)" fill="#ea4335"/>
  <rect width="18.604" height="3.105" rx="1.552" transform="rotate(-8.011 3806.163 -2412.758) skewX(-.022)" fill="#ea4335"/>
  <rect width="24.805" height="3.105" rx="1.552" transform="rotate(-8.011 3861.583 -2416.598) skewX(-.022)" fill="#ea4335"/>
  <path d="M90.597 136.001c6.703 25.052-8.143 50.803-33.16 57.516C32.418 200.23 6.702 185.363 0 160.31l90.597-24.309Z" fill="#ea4335"/>
  <rect width="90.206" height="47.576" rx="23.788" transform="rotate(20.349 7.996 172.678) skewX(-.002)" fill="goldenrod"/>
  <ellipse rx="18.991" ry="19.03" transform="rotate(20.349 -70.144 226.922) skewX(-.002)" fill="#ea4335"/>
  <rect width="54.265" height="54.332" rx="20" transform="rotate(14.733 -1780.908 512.492) skewX(.039)" fill="goldenrod"/>
  <path d="m78.609 501.805 4.802 8.035a1 1 0 0 0 1.353.356l20.332-11.6" stroke="#fff" stroke-width="8" stroke-linecap="round"/>
  <rect x="2.073" y="3.703" width="55.243" height="55.316" rx="17" transform="rotate(15.776 -491.48 1244.006) skewX(.042)" fill="#000" stroke="#ea4335" stroke-width="6"/>
  <path fill-rule="evenodd" clip-rule="evenodd" d="M333.698 230.337a2.329 2.329 0 0 0 1.608 2.871 2.323 2.323 0 0 0 2.868-1.606l2.737-9.713 9.695 2.739a2.328 2.328 0 1 0 1.263-4.483l-9.695-2.739 2.737-9.716a2.328 2.328 0 0 0-1.607-2.871 2.324 2.324 0 0 0-2.869 1.606l-2.737 9.716-9.696-2.739a2.327 2.327 0 0 0-2.873 1.608 2.332 2.332 0 0 0 1.61 2.875l9.696 2.739-2.737 9.713Z" fill="#ea4335"/>
  <ellipse cx="212.503" cy="75.495" rx="15.503" ry="15.525" fill="goldenrod"/>
</svg>
